<svg width="30" height="30" viewBox="0 0 30 30" fill="none" xmlns="http://www.w3.org/2000/svg">
<path d="M4.44914 23.4335C4.05862 23.824 4.05862 24.4572 4.44914 24.8477C4.83967 25.2383 5.47283 25.2383 5.86336 24.8477L4.44914 23.4335ZM10.7812 18.5156L11.4884 17.8085C11.0978 17.418 10.4647 17.418 10.0741 17.8085L10.7812 18.5156ZM13.5938 21.3281L12.8866 22.0352C13.2772 22.4258 13.9103 22.4258 14.3009 22.0352L13.5938 21.3281ZM19.9219 15L20.629 14.2929C20.2385 13.9024 19.6053 13.9024 19.2148 14.2929L19.9219 15ZM24.8398 21.3321C25.2303 21.7226 25.8635 21.7226 26.254 21.3321C26.6445 20.9416 26.6445 20.3084 26.254 19.9179L24.8398 21.3321ZM5.86336 24.8477L11.4884 19.2227L10.0741 17.8085L4.44914 23.4335L5.86336 24.8477ZM10.0741 19.2227L12.8866 22.0352L14.3009 20.621L11.4884 17.8085L10.0741 19.2227ZM14.3009 22.0352L20.629 15.7071L19.2148 14.2929L12.8866 20.621L14.3009 22.0352ZM19.2148 15.7071L24.8398 21.3321L26.254 19.9179L20.629 14.2929L19.2148 15.7071ZM7.96875 4.75H22.0312V2.75H7.96875V4.75ZM25.25 7.96875V22.0312H27.25V7.96875H25.25ZM22.0312 25.25H7.96875V27.25H22.0312V25.25ZM4.75 22.0312V7.96875H2.75V22.0312H4.75ZM7.96875 25.25C6.19108 25.25 4.75 23.8089 4.75 22.0312H2.75C2.75 24.9135 5.08651 27.25 7.96875 27.25V25.25ZM25.25 22.0312C25.25 23.8089 23.8089 25.25 22.0312 25.25V27.25C24.9135 27.25 27.25 24.9135 27.25 22.0312H25.25ZM22.0312 4.75C23.8089 4.75 25.25 6.19108 25.25 7.96875H27.25C27.25 5.08651 24.9135 2.75 22.0312 2.75V4.75ZM7.96875 2.75C5.08651 2.75 2.75 5.08651 2.75 7.96875H4.75C4.75 6.19108 6.19108 4.75 7.96875 4.75V2.75ZM11.1875 10.0781C11.1875 10.6908 10.6908 11.1875 10.0781 11.1875V13.1875C11.7954 13.1875 13.1875 11.7954 13.1875 10.0781H11.1875ZM10.0781 11.1875C9.46543 11.1875 8.96875 10.6908 8.96875 10.0781H6.96875C6.96875 11.7954 8.36086 13.1875 10.0781 13.1875V11.1875ZM8.96875 10.0781C8.96875 9.46543 9.46543 8.96875 10.0781 8.96875V6.96875C8.36086 6.96875 6.96875 8.36086 6.96875 10.0781H8.96875ZM10.0781 8.96875C10.6908 8.96875 11.1875 9.46543 11.1875 10.0781H13.1875C13.1875 8.36086 11.7954 6.96875 10.0781 6.96875V8.96875Z" fill="#3F98FF"/>
</svg>
