<svg width="24" height="24" viewBox="0 0 24 24" fill="none" xmlns="http://www.w3.org/2000/svg">
<path fill-rule="evenodd" clip-rule="evenodd" d="M6.00002 0C4.59741 0 3.42859 1.11749 3.42859 2.53478V9.21538C3.44484 9.21466 3.46118 9.21429 3.4776 9.21429H20.5224C20.5389 9.21429 20.5552 9.21466 20.5714 9.21538V2.53478C20.5714 1.11749 19.4026 0 18 0H6.00002ZM3.42859 19.3111V11.356C3.44484 11.3568 3.46118 11.3571 3.4776 11.3571H20.5224C20.5389 11.3571 20.5552 11.3568 20.5714 11.356V19.3111C20.5714 20.5812 19.6329 21.6105 18.4286 21.8107V22.7031C18.4286 23.4132 17.8529 23.9889 17.1429 23.9889C16.4328 23.9889 15.8572 23.4132 15.8572 22.7031V21.846H8.14287V22.7031C8.14287 23.4132 7.56723 23.9889 6.85716 23.9889C6.14709 23.9889 5.57145 23.4132 5.57145 22.7031V21.8107C4.36714 21.6105 3.42859 20.5812 3.42859 19.3111ZM8.64218 4.47305C8.64218 3.88133 8.16249 3.40162 7.57075 3.40162C6.97901 3.40162 6.49932 3.88133 6.49932 4.47305V5.33019C6.49932 5.92193 6.97901 6.40162 7.57075 6.40162C8.16249 6.40162 8.64218 5.92193 8.64218 5.33019V4.47305Z" fill="black"/>
</svg>
